<svg width="45" height="53" viewBox="0 0 45 53" fill="none" xmlns="http://www.w3.org/2000/svg">
<path d="M22.8512 0.0275879C21.1095 0.0275879 19.7024 1.48494 19.7024 3.28879V5.24552C12.5191 6.75383 7.10707 13.3374 7.10707 21.2254V23.1414C7.10707 27.9313 5.40473 32.5581 2.33461 36.1454L1.60644 36.9913C0.779875 37.9493 0.583073 39.3251 1.08492 40.4971C1.58676 41.6691 2.71838 42.4233 3.95823 42.4233H41.7442C42.9841 42.4233 44.1059 41.6691 44.6176 40.4971C45.1292 39.3251 44.9226 37.9493 44.096 36.9913L43.3679 36.1454C40.2978 32.5581 38.5954 27.9415 38.5954 23.1414V21.2254C38.5954 13.3374 33.1834 6.75383 26.0001 5.24552V3.28879C26.0001 1.48494 24.5929 0.0275879 22.8512 0.0275879ZM27.3088 50.3011C28.4896 49.0782 29.1489 47.417 29.1489 45.6845H22.8512H16.5536C16.5536 47.417 17.2129 49.0782 18.3937 50.3011C19.5745 51.5241 21.1784 52.2069 22.8512 52.2069C24.5241 52.2069 26.128 51.5241 27.3088 50.3011Z" fill="#FFFCF5"/>
</svg>
