<svg width="40" height="41" viewBox="0 0 40 41" fill="none" xmlns="http://www.w3.org/2000/svg">
<path d="M5.7796 22.3679L5.7823 22.3708L19.8992 37.7632C19.9463 37.8145 19.9829 37.8373 20 37.8461C20.0171 37.8373 20.0537 37.8145 20.1008 37.7632L34.2177 22.3708L34.2204 22.3679C36.0781 20.3481 37.2 17.4212 37.2 14.2723V13.7431C37.2 8.39591 33.9225 4.3646 30.1369 3.62621L5.7796 22.3679ZM5.7796 22.3679C3.92189 20.3481 2.8 17.4212 2.8 14.2723V13.7431C2.8 8.39591 6.07751 4.3646 9.86311 3.62621L5.7796 22.3679ZM20 9.91841L17.8731 7.4344L16.9356 6.33949C14.979 4.05427 12.3414 3.1441 9.86386 3.62606L20 9.91841ZM20 9.91841L22.1269 7.4344M20 9.91841L22.1269 7.4344M22.1269 7.4344L23.0644 6.33949C25.021 4.05427 27.6586 3.1441 30.1361 3.62606L22.1269 7.4344Z" fill="#FC0000" stroke="#FF0101" stroke-width="5.6"/>
</svg>
