<svg width="30" height="30" viewBox="0 0 30 30" fill="none" xmlns="http://www.w3.org/2000/svg">
<path d="M10.3049 2.87249L10.7802 2.04655C10.7834 2.04444 10.7877 2.04184 10.7932 2.03887C10.8275 2.02035 10.8884 2 10.9688 2H19.0312C19.1116 2 19.1725 2.02035 19.2068 2.03887C19.2123 2.04184 19.2166 2.04444 19.2198 2.04655L19.6951 2.8725L20.1281 3.625H9.87191L10.3049 2.87249ZM19.2278 2.05244C19.2278 2.05245 19.2275 2.05221 19.2269 2.05169L19.2278 2.05244ZM4.2909 9.5H25.7091L24.4427 27.2191C24.4427 27.2192 24.4427 27.2192 24.4427 27.2193C24.4333 27.3481 24.366 27.5223 24.1592 27.6923C23.9494 27.8646 23.6259 28 23.2299 28H6.77009C6.37412 28 6.0506 27.8646 5.84084 27.6923C5.63401 27.5223 5.56671 27.3482 5.55732 27.2194C5.55731 27.2193 5.5573 27.2192 5.5573 27.2191L4.2909 9.5Z" fill="white" stroke="#FF6811" stroke-width="4"/>
</svg>
