<svg width="30" height="38" viewBox="0 0 30 38" fill="none" xmlns="http://www.w3.org/2000/svg">
<path d="M29.9168 12.1806C30.1158 12.8167 29.9479 13.5259 29.519 13.9792L26.8272 16.8598C26.8955 17.4666 26.9328 18.0881 26.9328 18.7169C26.9328 19.3456 26.8955 19.9671 26.8272 20.5739L29.519 23.4546C29.9479 23.9079 30.1158 24.6171 29.9168 25.2531C29.6433 26.1232 29.3138 26.9567 28.9346 27.7609L28.6424 28.3531C28.2321 29.1574 27.7721 29.9177 27.2685 30.6342C26.9018 31.1606 26.2925 31.3361 25.7455 31.1314L22.2828 29.8373C21.4498 30.5904 20.5297 31.2191 19.5475 31.6944L18.7704 35.8691C18.6461 36.5344 18.2109 37.0608 17.639 37.1705C16.7811 37.3387 15.8983 37.4264 14.9969 37.4264C14.0955 37.4264 13.2127 37.3387 12.3548 37.1705C11.7829 37.0608 11.3477 36.5344 11.2234 35.8691L10.4463 31.6944C9.46408 31.2191 8.54402 30.5904 7.71099 29.8373L4.25453 31.1387C3.70747 31.3434 3.09824 31.1606 2.73145 30.6415C2.22791 29.925 1.76787 29.1647 1.35758 28.3604L1.06539 27.7682C0.686178 26.964 0.356696 26.1305 0.0831636 25.2604C-0.115769 24.6244 0.0520803 23.9152 0.481029 23.4619L3.17284 20.5812C3.10445 19.9671 3.06715 19.3456 3.06715 18.7169C3.06715 18.0881 3.10445 17.4666 3.17284 16.8598L0.481029 13.9792C0.0520803 13.5259 -0.115769 12.8167 0.0831636 12.1806C0.356696 11.3105 0.686178 10.4771 1.06539 9.67281L1.35758 9.0806C1.76787 8.27636 2.22791 7.51599 2.73145 6.79948C3.09824 6.27307 3.70747 6.0976 4.25453 6.30232L7.7172 7.59641C8.55023 6.84335 9.47029 6.21458 10.4525 5.73935L11.2296 1.56461C11.3539 0.899286 11.7891 0.372875 12.361 0.263206C13.2189 0.0877352 14.1017 0 15.0031 0C15.9045 0 16.7873 0.0877353 17.6452 0.255895C18.2171 0.365564 18.6523 0.891975 18.7766 1.5573L19.5537 5.73204C20.5359 6.20727 21.456 6.83604 22.289 7.5891L25.7517 6.29501C26.2987 6.09029 26.908 6.27307 27.2748 6.79217C27.7783 7.50868 28.2383 8.26905 28.6486 9.07329L28.9408 9.6655C29.32 10.4697 29.6495 11.3032 29.9231 12.1733L29.9168 12.1806ZM15.0031 24.5659C16.3221 24.5659 17.5871 23.9496 18.5198 22.8527C19.4525 21.7558 19.9764 20.2681 19.9764 18.7169C19.9764 17.1656 19.4525 15.6779 18.5198 14.581C17.5871 13.4841 16.3221 12.8678 15.0031 12.8678C13.6841 12.8678 12.4191 13.4841 11.4864 14.581C10.5538 15.6779 10.0298 17.1656 10.0298 18.7169C10.0298 20.2681 10.5538 21.7558 11.4864 22.8527C12.4191 23.9496 13.6841 24.5659 15.0031 24.5659Z" fill="#EEEEEE"/>
</svg>
