<svg width="30" height="38" viewBox="0 0 30 38" fill="none" xmlns="http://www.w3.org/2000/svg">
<path d="M29.9921 18.6767C29.9921 19.9924 29.2108 21.0231 28.3253 21.0231H26.6585L26.695 32.7335C26.695 32.9308 26.6846 33.1282 26.6689 33.3256V34.5025C26.6689 36.1179 25.7366 37.4264 24.5854 37.4264H23.752C23.6947 37.4264 23.6374 37.4264 23.5801 37.4191C23.5072 37.4264 23.4343 37.4264 23.3614 37.4264H21.6685H20.4184C19.2673 37.4264 18.3349 36.1179 18.3349 34.5025V32.7481V28.0698C18.3349 26.776 17.59 25.7306 16.6681 25.7306H13.3345C12.4125 25.7306 11.6677 26.776 11.6677 28.0698V32.7481V34.5025C11.6677 36.1179 10.7353 37.4264 9.58415 37.4264H8.33404H6.67244C6.59431 37.4264 6.51618 37.4191 6.43805 37.4118C6.37554 37.4191 6.31304 37.4264 6.25053 37.4264H5.41713C4.26599 37.4264 3.33362 36.1179 3.33362 34.5025V26.3154C3.33362 26.2496 3.33362 26.1765 3.33883 26.1108V21.0231H1.66681C0.729229 21.0231 0 19.9997 0 18.6767C0 18.0188 0.156263 17.434 0.520878 16.9223L13.8762 0.584787C14.2408 0.0730984 14.6575 0 15.0221 0C15.3867 0 15.8034 0.146197 16.116 0.511689L29.4192 16.9223C29.8359 17.434 30.0442 18.0188 29.9921 18.6767Z" fill="#EB3333"/>
</svg>
