<svg width="30" height="38" viewBox="0 0 30 38" fill="none" xmlns="http://www.w3.org/2000/svg">
<path d="M15 0C18.9782 0 22.7936 1.97156 25.6066 5.48097C28.4196 8.99038 30 13.7502 30 18.7132C30 23.6762 28.4196 28.436 25.6066 31.9454C22.7936 35.4548 18.9782 37.4264 15 37.4264C11.0218 37.4264 7.20644 35.4548 4.3934 31.9454C1.58035 28.436 0 23.6762 0 18.7132C0 13.7502 1.58035 8.99038 4.3934 5.48097C7.20644 1.97156 11.0218 0 15 0ZM13.5938 8.77181V18.7132C13.5938 19.298 13.8281 19.8462 14.2207 20.1752L19.8457 24.8535C20.4902 25.3944 21.3633 25.1751 21.7969 24.3637C22.2305 23.5523 22.0547 22.4705 21.4043 21.9295L16.4062 17.7775V8.77181C16.4062 7.7996 15.7793 7.01745 15 7.01745C14.2207 7.01745 13.5938 7.7996 13.5938 8.77181Z" fill="#EEEEEE"/>
</svg>
