<svg width="32" height="40" viewBox="0 0 32 40" fill="none" xmlns="http://www.w3.org/2000/svg">
<path d="M27.406 38.0538L27.4061 38.054C27.8576 38.6171 28.4764 38.9264 29.1234 38.9264C29.7704 38.9264 30.3893 38.6171 30.8408 38.054C31.7197 36.9576 31.7197 35.2139 30.8408 34.1176L23.635 25.1228C25.048 22.5855 25.8762 19.5114 25.8762 16.2022C25.8762 7.63711 20.2945 0.5 13.1881 0.5C6.08173 0.5 0.5 7.63711 0.5 16.2022C0.5 24.7674 6.08173 31.9045 13.1881 31.9045C15.8403 31.9045 18.2919 30.9036 20.3145 29.2016L27.406 38.0538ZM16.1876 25.4815C15.2319 25.9753 14.2131 26.2269 13.1881 26.2269C12.1631 26.2269 11.1443 25.9753 10.1886 25.4815C9.2322 24.9874 8.35533 24.2591 7.61169 23.3315C6.86796 22.4039 6.27373 21.297 5.867 20.0723C5.46029 18.8476 5.25018 17.5323 5.25018 16.2022C5.25018 14.8722 5.46029 13.5569 5.867 12.3322C6.27373 11.1074 6.86796 10.0006 7.61169 9.07297C8.35533 8.14543 9.2322 7.41707 10.1886 6.92297C11.1443 6.4292 12.1631 6.17761 13.1881 6.17761C14.2131 6.17761 15.2319 6.4292 16.1876 6.92297C17.144 7.41707 18.0209 8.14543 18.7645 9.07297C19.5082 10.0006 20.1025 11.1074 20.5092 12.3322C20.9159 13.5569 21.126 14.8722 21.126 16.2022C21.126 17.5323 20.9159 18.8476 20.5092 20.0723C20.1025 21.297 19.5082 22.4039 18.7645 23.3315C18.0209 24.2591 17.144 24.9874 16.1876 25.4815Z" fill="#EEEEEE" stroke="#EEEEEE"/>
</svg>
