<svg width="30" height="38" viewBox="0 0 30 38" fill="none" xmlns="http://www.w3.org/2000/svg">
<path d="M2.78906 22.0746L13.377 36.4947C13.8164 37.093 14.3965 37.4264 15 37.4264C15.6035 37.4264 16.1836 37.093 16.623 36.4947L27.2109 22.0746C28.9922 19.6556 30 16.2621 30 12.7148V12.219C30 6.24408 27.041 1.1496 23.0039 0.166605C20.332 -0.483026 17.6133 0.790594 15.7031 3.57717L15 4.60291L14.2969 3.57717C12.3867 0.790594 9.66797 -0.483026 6.99609 0.166605C2.95898 1.1496 0 6.24408 0 12.219V12.7148C0 16.2621 1.00781 19.6556 2.78906 22.0746Z" fill="#EEEEEE"/>
</svg>
