<svg width="30" height="38" viewBox="0 0 30 38" fill="none" xmlns="http://www.w3.org/2000/svg">
<path d="M4.5 9.3566C4.5 6.87508 5.13214 4.49519 6.25736 2.74048C7.38258 0.985782 8.9087 0 10.5 0C12.0913 0 13.6174 0.985782 14.7426 2.74048C15.8679 4.49519 16.5 6.87508 16.5 9.3566C16.5 11.8381 15.8679 14.218 14.7426 15.9727C13.6174 17.7274 12.0913 18.7132 10.5 18.7132C8.9087 18.7132 7.38258 17.7274 6.25736 15.9727C5.13214 14.218 4.5 11.8381 4.5 9.3566ZM0 35.2554C0 28.0552 3.74063 22.2219 8.35781 22.2219H12.6422C17.2594 22.2219 21 28.0552 21 35.2554C21 36.4542 20.3766 37.4264 19.6078 37.4264H1.39219C0.623438 37.4264 0 36.4542 0 35.2554ZM23.625 22.8067V18.1284H20.625C20.0016 18.1284 19.5 17.3463 19.5 16.3741C19.5 15.4018 20.0016 14.6197 20.625 14.6197H23.625V9.94139C23.625 8.96918 24.1266 8.18703 24.75 8.18703C25.3734 8.18703 25.875 8.96918 25.875 9.94139V14.6197H28.875C29.4984 14.6197 30 15.4018 30 16.3741C30 17.3463 29.4984 18.1284 28.875 18.1284H25.875V22.8067C25.875 23.7789 25.3734 24.5611 24.75 24.5611C24.1266 24.5611 23.625 23.7789 23.625 22.8067Z" fill="#EEEEEE"/>
</svg>
